<svg xmlns="http://www.w3.org/2000/svg" xmlns:xlink="http://www.w3.org/1999/xlink" width="2458" zoomAndPan="magnify" viewBox="0 0 1843.5 383.999986" height="512" preserveAspectRatio="xMidYMid meet" version="1.0"><defs><g/><clipPath id="d5643040fb"><path d="M 526 76 L 723 76 L 723 383.945312 L 526 383.945312 Z M 526 76 " clip-rule="nonzero"/></clipPath></defs><g fill="#ffffff" fill-opacity="1"><g transform="translate(272.162842, 304.699391)"><g><path d="M 158.984375 -269.359375 C 161.097656 -267.847656 163.289062 -266.410156 165.5625 -265.046875 C 167.832031 -263.679688 169.726562 -261.789062 171.25 -259.375 C 174.269531 -254.820312 175.628906 -250.734375 175.328125 -247.109375 C 175.023438 -242.867188 175.628906 -238.929688 177.140625 -235.296875 C 178.660156 -231.660156 179.722656 -227.875 180.328125 -223.9375 L 181.234375 -223.484375 C 181.234375 -219.847656 181.765625 -216.285156 182.828125 -212.796875 C 183.890625 -209.316406 184.875 -205.765625 185.78125 -202.140625 C 186.6875 -198.203125 187.289062 -194.265625 187.59375 -190.328125 C 187.894531 -186.390625 188.65625 -182.300781 189.875 -178.0625 C 191.082031 -174.425781 192.210938 -170.789062 193.265625 -167.15625 C 194.328125 -163.519531 195.46875 -159.734375 196.6875 -155.796875 C 196.988281 -155.191406 197.289062 -154.585938 197.59375 -153.984375 C 197.894531 -153.378906 197.894531 -152.925781 197.59375 -152.625 C 195.164062 -148.988281 194.707031 -145.425781 196.21875 -141.9375 C 197.738281 -138.457031 198.195312 -134.90625 197.59375 -131.28125 C 197.59375 -130.664062 197.742188 -130.054688 198.046875 -129.453125 C 198.347656 -128.847656 198.648438 -128.242188 198.953125 -127.640625 C 201.378906 -123.398438 203.195312 -119.160156 204.40625 -114.921875 C 205.613281 -110.679688 206.976562 -106.289062 208.5 -101.75 C 209.101562 -99.925781 209.40625 -97.953125 209.40625 -95.828125 C 209.40625 -93.710938 209.554688 -91.597656 209.859375 -89.484375 C 209.859375 -87.972656 209.929688 -86.382812 210.078125 -84.71875 C 210.234375 -83.050781 210.765625 -81.457031 211.671875 -79.9375 C 214.097656 -76.3125 215.613281 -72.453125 216.21875 -68.359375 C 216.820312 -64.273438 217.425781 -60.113281 218.03125 -55.875 C 218.332031 -51.9375 218.785156 -48 219.390625 -44.0625 C 219.992188 -40.125 221.054688 -36.335938 222.578125 -32.703125 C 224.691406 -27.554688 225.75 -22.109375 225.75 -16.359375 L 225.75 -7.265625 C 223.332031 -4.847656 220.835938 -3.179688 218.265625 -2.265625 C 215.691406 -1.359375 212.738281 -0.601562 209.40625 0 C 204.257812 0.90625 198.957031 1.359375 193.5 1.359375 C 188.050781 1.359375 182.453125 1.507812 176.703125 1.8125 C 175.179688 0.300781 173.507812 -1.054688 171.6875 -2.265625 C 169.875 -3.484375 168.515625 -4.546875 167.609375 -5.453125 C 165.191406 -9.390625 163.984375 -13.171875 163.984375 -16.796875 C 163.984375 -20.429688 163.222656 -23.914062 161.703125 -27.25 C 161.703125 -28.46875 161.703125 -29.078125 161.703125 -29.078125 C 158.367188 -31.796875 156.625 -34.972656 156.46875 -38.609375 C 156.320312 -42.242188 156.097656 -45.878906 155.796875 -49.515625 C 155.796875 -51.023438 155.566406 -52.382812 155.109375 -53.59375 C 154.660156 -54.8125 154.132812 -56.023438 153.53125 -57.234375 C 151.414062 -59.046875 149.066406 -59.800781 146.484375 -59.5 C 143.910156 -59.195312 141.566406 -59.5 139.453125 -60.40625 C 134.003906 -62.832031 128.703125 -63.289062 123.546875 -61.78125 C 117.492188 -60.257812 111.4375 -59.726562 105.375 -60.1875 C 99.320312 -60.644531 92.960938 -60.566406 86.296875 -59.953125 C 80.242188 -52.992188 76.765625 -44.664062 75.859375 -34.96875 C 75.554688 -29.820312 74.796875 -24.75 73.578125 -19.75 C 72.367188 -14.757812 70.097656 -9.691406 66.765625 -4.546875 C 65.554688 -3.941406 64.039062 -3.257812 62.21875 -2.5 C 60.40625 -1.738281 58.441406 -1.054688 56.328125 -0.453125 C 54.503906 0.453125 52.609375 1.207031 50.640625 1.8125 C 48.671875 2.414062 46.78125 1.660156 44.96875 -0.453125 C 42.539062 0.148438 40.265625 0.148438 38.140625 -0.453125 C 36.023438 -1.054688 33.910156 -0.601562 31.796875 0.90625 C 31.191406 1.507812 30.585938 1.8125 29.984375 1.8125 C 29.378906 1.8125 28.769531 1.8125 28.15625 1.8125 C 24.832031 0.601562 21.351562 -0.453125 17.71875 -1.359375 C 14.082031 -2.265625 10.898438 -4.382812 8.171875 -7.71875 C 8.472656 -10.445312 8.546875 -13.398438 8.390625 -16.578125 C 8.242188 -19.753906 9.535156 -22.554688 12.265625 -24.984375 C 11.960938 -28.921875 12.566406 -32.628906 14.078125 -36.109375 C 15.597656 -39.585938 16.359375 -43.296875 16.359375 -47.234375 C 16.359375 -48.148438 16.507812 -49.0625 16.8125 -49.96875 C 17.113281 -50.875 17.414062 -51.78125 17.71875 -52.6875 C 18.320312 -55.113281 19.078125 -57.460938 19.984375 -59.734375 C 20.890625 -62.003906 21.039062 -64.347656 20.4375 -66.765625 C 20.132812 -67.984375 20.585938 -70.101562 21.796875 -73.125 C 22.410156 -75.25 22.941406 -77.296875 23.390625 -79.265625 C 23.847656 -81.234375 24.226562 -83.425781 24.53125 -85.84375 C 24.832031 -89.175781 25.4375 -92.507812 26.34375 -95.84375 C 27.25 -99.175781 28.160156 -102.507812 29.078125 -105.84375 C 29.679688 -108.257812 30.285156 -110.753906 30.890625 -113.328125 C 31.492188 -115.898438 31.945312 -118.550781 32.25 -121.28125 C 32.851562 -124.613281 33.535156 -128.019531 34.296875 -131.5 C 35.054688 -134.976562 35.890625 -138.382812 36.796875 -141.71875 C 36.796875 -142.019531 37.019531 -142.320312 37.46875 -142.625 C 37.925781 -142.925781 38.15625 -143.382812 38.15625 -144 C 37.550781 -147.320312 37.851562 -150.5 39.0625 -153.53125 C 40.269531 -156.5625 41.332031 -159.738281 42.25 -163.0625 C 42.851562 -164.582031 43.378906 -166.097656 43.828125 -167.609375 C 44.285156 -169.128906 44.515625 -170.796875 44.515625 -172.609375 C 44.210938 -174.117188 44.285156 -175.628906 44.734375 -177.140625 C 45.191406 -178.660156 45.722656 -180.175781 46.328125 -181.6875 C 46.929688 -185.925781 47.835938 -190.316406 49.046875 -194.859375 C 50.265625 -199.410156 50.722656 -204.109375 50.421875 -208.953125 C 49.816406 -211.367188 50.421875 -213.941406 52.234375 -216.671875 C 53.753906 -219.085938 54.664062 -221.660156 54.96875 -224.390625 C 55.269531 -227.117188 55.722656 -229.691406 56.328125 -232.109375 C 57.835938 -236.347656 58.363281 -240.585938 57.90625 -244.828125 C 57.457031 -249.066406 58.898438 -253.003906 62.234375 -256.640625 C 62.234375 -259.066406 62.609375 -260.882812 63.359375 -262.09375 C 64.117188 -263.300781 65.179688 -264.207031 66.546875 -264.8125 C 67.910156 -265.425781 69.347656 -265.882812 70.859375 -266.1875 C 72.367188 -266.488281 73.882812 -266.941406 75.40625 -267.546875 C 77.519531 -268.148438 79.785156 -268.375 82.203125 -268.21875 C 84.628906 -268.070312 86.601562 -268.601562 88.125 -269.8125 C 90.238281 -271.332031 92.351562 -271.9375 94.46875 -271.625 C 96.59375 -271.320312 98.71875 -271.78125 100.84375 -273 C 105.988281 -275.113281 111.132812 -275.113281 116.28125 -273 C 118.40625 -272.394531 120.375 -272.09375 122.1875 -272.09375 C 124.007812 -272.09375 125.828125 -271.9375 127.640625 -271.625 C 132.785156 -271.019531 138.007812 -270.566406 143.3125 -270.265625 C 148.613281 -269.960938 153.835938 -269.660156 158.984375 -269.359375 Z M 109.46875 -186.234375 C 109.164062 -183.203125 108.9375 -180.171875 108.78125 -177.140625 C 108.632812 -174.117188 108.410156 -170.941406 108.109375 -167.609375 C 108.109375 -166.398438 107.957031 -165.492188 107.65625 -164.890625 C 106.132812 -160.648438 104.84375 -156.332031 103.78125 -151.9375 C 102.726562 -147.550781 101.445312 -143.238281 99.9375 -139 C 99.320312 -136.570312 98.710938 -134.296875 98.109375 -132.171875 C 97.503906 -130.054688 96.898438 -127.789062 96.296875 -125.375 C 97.203125 -123.550781 97.957031 -121.503906 98.5625 -119.234375 C 99.175781 -116.960938 100.84375 -115.222656 103.5625 -114.015625 C 105.082031 -114.316406 106.75 -114.316406 108.5625 -114.015625 C 110.375 -113.710938 112.039062 -114.316406 113.5625 -115.828125 C 114.164062 -116.429688 114.921875 -116.734375 115.828125 -116.734375 C 116.734375 -116.734375 117.488281 -116.429688 118.09375 -115.828125 C 120.519531 -114.316406 123.019531 -113.710938 125.59375 -114.015625 C 128.164062 -114.316406 130.664062 -114.316406 133.09375 -114.015625 C 137.03125 -118.859375 138.847656 -123.773438 138.546875 -128.765625 C 138.242188 -133.765625 137.632812 -138.84375 136.71875 -144 C 136.113281 -147.925781 135.128906 -151.707031 133.765625 -155.34375 C 132.410156 -158.976562 131.125 -162.765625 129.90625 -166.703125 C 129.601562 -168.210938 129.601562 -169.875 129.90625 -171.6875 C 130.207031 -173.507812 130.207031 -175.179688 129.90625 -176.703125 C 129.601562 -178.210938 129.300781 -179.875 129 -181.6875 C 128.695312 -183.507812 128.242188 -185.476562 127.640625 -187.59375 C 125.828125 -188.195312 124.390625 -189.554688 123.328125 -191.671875 C 122.265625 -193.796875 120.066406 -194.554688 116.734375 -193.953125 C 115.828125 -192.742188 114.765625 -191.53125 113.546875 -190.3125 C 112.335938 -189.101562 110.976562 -187.742188 109.46875 -186.234375 Z M 109.46875 -186.234375 "/></g></g></g><g clip-path="url(#d5643040fb)"><g fill="#ffffff" fill-opacity="1"><g transform="translate(508.361798, 304.699391)"><g><path d="M 23.625 67.234375 C 23.019531 65.710938 22.789062 64.117188 22.9375 62.453125 C 23.09375 60.785156 22.5625 59.046875 21.34375 57.234375 C 20.132812 55.109375 19.984375 52.984375 20.890625 50.859375 C 21.796875 48.742188 22.554688 46.476562 23.171875 44.0625 C 23.472656 42.238281 22.941406 40.34375 21.578125 38.375 C 20.210938 36.414062 20.4375 34.222656 22.25 31.796875 C 22.863281 30.890625 23.242188 29.601562 23.390625 27.9375 C 23.546875 26.269531 23.320312 24.984375 22.71875 24.078125 C 21.195312 21.347656 20.660156 18.617188 21.109375 15.890625 C 21.566406 13.171875 21.492188 10.445312 20.890625 7.71875 C 20.890625 6.207031 21.039062 4.84375 21.34375 3.625 C 21.644531 2.414062 21.039062 1.054688 19.53125 -0.453125 C 18.925781 -1.054688 18.546875 -1.960938 18.390625 -3.171875 C 18.242188 -4.390625 18.472656 -5.300781 19.078125 -5.90625 C 20.585938 -7.71875 21.265625 -9.609375 21.109375 -11.578125 C 20.960938 -13.546875 20.890625 -15.441406 20.890625 -17.265625 C 21.191406 -24.523438 21.265625 -31.710938 21.109375 -38.828125 C 20.960938 -45.953125 21.039062 -53.144531 21.34375 -60.40625 C 21.34375 -62.832031 21.265625 -65.332031 21.109375 -67.90625 C 20.960938 -70.476562 21.5 -72.976562 22.71875 -75.40625 C 23.320312 -76.914062 23.625 -78.804688 23.625 -81.078125 C 23.625 -83.347656 23.015625 -85.546875 21.796875 -87.671875 C 21.191406 -88.578125 20.890625 -89.632812 20.890625 -90.84375 C 20.890625 -92.050781 20.890625 -93.265625 20.890625 -94.484375 C 20.890625 -105.078125 20.960938 -115.671875 21.109375 -126.265625 C 21.265625 -136.867188 21.191406 -147.472656 20.890625 -158.078125 C 20.890625 -161.097656 20.890625 -163.972656 20.890625 -166.703125 C 20.890625 -169.429688 20.4375 -172.304688 19.53125 -175.328125 C 18.925781 -177.753906 18.925781 -180.253906 19.53125 -182.828125 C 20.132812 -185.398438 20.738281 -187.898438 21.34375 -190.328125 C 21.644531 -192.140625 22.097656 -193.878906 22.703125 -195.546875 C 23.316406 -197.210938 23.472656 -198.953125 23.171875 -200.765625 C 22.867188 -202.585938 22.789062 -204.40625 22.9375 -206.21875 C 23.09375 -208.039062 23.171875 -209.859375 23.171875 -211.671875 C 24.378906 -214.097656 25.738281 -216.296875 27.25 -218.265625 C 28.769531 -220.234375 31.039062 -221.671875 34.0625 -222.578125 C 36.789062 -223.179688 39.515625 -223.707031 42.234375 -224.15625 C 44.960938 -224.613281 47.84375 -224.84375 50.875 -224.84375 C 53.90625 -225.144531 56.859375 -225.21875 59.734375 -225.0625 C 62.609375 -224.914062 65.710938 -224.992188 69.046875 -225.296875 C 78.429688 -225.296875 86 -221.96875 91.75 -215.3125 C 98.414062 -214.394531 104.472656 -215.523438 109.921875 -218.703125 C 115.367188 -221.890625 121.726562 -224.691406 129 -227.109375 C 134.144531 -227.722656 139.820312 -227.347656 146.03125 -225.984375 C 152.238281 -224.617188 158.675781 -224.238281 165.34375 -224.84375 C 167.15625 -224.84375 169.046875 -224.3125 171.015625 -223.25 C 172.984375 -222.195312 174.878906 -221.210938 176.703125 -220.296875 C 182.148438 -216.671875 186.992188 -213.039062 191.234375 -209.40625 C 200.316406 -200.925781 205.460938 -190.929688 206.671875 -179.421875 C 206.671875 -177.910156 206.972656 -176.546875 207.578125 -175.328125 C 208.191406 -174.117188 208.800781 -172.910156 209.40625 -171.703125 C 210.914062 -168.671875 211.972656 -165.867188 212.578125 -163.296875 C 213.179688 -160.722656 212.726562 -157.769531 211.21875 -154.4375 C 210.007812 -152.625 210.007812 -151.109375 211.21875 -149.890625 C 212.726562 -147.773438 213.40625 -145.582031 213.25 -143.3125 C 213.101562 -141.039062 212.878906 -138.84375 212.578125 -136.71875 C 211.972656 -133.394531 211.519531 -130.75 211.21875 -128.78125 C 210.914062 -126.8125 210.765625 -124.992188 210.765625 -123.328125 C 210.765625 -121.660156 210.914062 -119.84375 211.21875 -117.875 C 211.519531 -115.90625 211.972656 -113.40625 212.578125 -110.375 C 213.179688 -107.039062 213.179688 -103.710938 212.578125 -100.390625 C 211.972656 -97.960938 211.519531 -95.988281 211.21875 -94.46875 C 210.914062 -92.957031 210.765625 -91.671875 210.765625 -90.609375 C 210.765625 -89.554688 210.914062 -88.421875 211.21875 -87.203125 C 211.519531 -85.992188 211.820312 -84.484375 212.125 -82.671875 C 212.726562 -79.941406 213.03125 -77.140625 213.03125 -74.265625 C 213.03125 -71.390625 212.273438 -68.585938 210.765625 -65.859375 C 211.066406 -64.347656 211.671875 -62.984375 212.578125 -61.765625 C 213.484375 -60.554688 213.179688 -59.046875 211.671875 -57.234375 C 210.460938 -55.722656 209.707031 -53.90625 209.40625 -51.78125 C 209.101562 -49.664062 208.648438 -47.695312 208.046875 -45.875 C 207.429688 -44.0625 207.046875 -42.242188 206.890625 -40.421875 C 206.742188 -38.609375 206.519531 -36.945312 206.21875 -35.4375 C 204.40625 -29.976562 201.90625 -25.203125 198.71875 -21.109375 C 195.539062 -17.023438 191.984375 -13.320312 188.046875 -10 C 186.535156 -8.78125 185.171875 -7.640625 183.953125 -6.578125 C 182.742188 -5.523438 181.382812 -4.695312 179.875 -4.09375 C 177.144531 -2.570312 174.414062 -1.28125 171.6875 -0.21875 C 168.96875 0.832031 165.941406 1.054688 162.609375 0.453125 C 160.492188 0.148438 158.375 0.601562 156.25 1.8125 C 153.832031 3.332031 151.488281 3.5625 149.21875 2.5 C 146.945312 1.4375 144.597656 0.753906 142.171875 0.453125 C 139.753906 0.148438 137.5625 0.601562 135.59375 1.8125 C 133.625 3.03125 131.273438 2.878906 128.546875 1.359375 C 126.128906 0.148438 123.476562 -0.523438 120.59375 -0.671875 C 117.71875 -0.828125 114.921875 -1.207031 112.203125 -1.8125 C 110.679688 -3.332031 109.085938 -4.695312 107.421875 -5.90625 C 105.753906 -7.113281 104.164062 -8.320312 102.65625 -9.53125 L 91.296875 -9.53125 C 90.691406 -8.320312 90.007812 -7.1875 89.25 -6.125 C 88.5 -5.070312 87.671875 -3.785156 86.765625 -2.265625 C 87.066406 -0.453125 87.0625 1.507812 86.75 3.625 C 86.445312 5.75 87.054688 7.875 88.578125 10 C 89.179688 10.601562 89.40625 11.582031 89.25 12.9375 C 89.101562 14.300781 88.726562 15.285156 88.125 15.890625 C 86.90625 17.710938 86.296875 19.609375 86.296875 21.578125 C 86.296875 23.546875 86.601562 25.4375 87.21875 27.25 C 87.519531 30.28125 87.820312 32.628906 88.125 34.296875 C 88.425781 35.960938 88.578125 37.550781 88.578125 39.0625 C 88.578125 40.570312 88.425781 42.234375 88.125 44.046875 C 87.820312 45.867188 87.519531 48.296875 87.21875 51.328125 C 86.601562 53.753906 86.523438 56.253906 86.984375 58.828125 C 87.441406 61.398438 87.820312 64.351562 88.125 67.6875 C 86.601562 72.53125 82.210938 76.613281 74.953125 79.9375 C 72.222656 79.632812 69.34375 79.710938 66.3125 80.171875 C 63.289062 80.628906 60.113281 79.945312 56.78125 78.125 C 55.570312 77.519531 54.359375 77.519531 53.140625 78.125 C 49.816406 80.550781 46.710938 81.082031 43.828125 79.71875 C 40.953125 78.351562 38 77.519531 34.96875 77.21875 C 29.21875 76.3125 25.4375 72.984375 23.625 67.234375 Z M 129 -53.59375 C 130.820312 -55.113281 132.789062 -56.859375 134.90625 -58.828125 C 137.03125 -60.796875 139.148438 -62.835938 141.265625 -64.953125 C 142.773438 -67.078125 143.988281 -69.195312 144.90625 -71.3125 C 145.8125 -74.644531 146.335938 -78.203125 146.484375 -81.984375 C 146.640625 -85.773438 147.320312 -89.332031 148.53125 -92.65625 C 148.832031 -93.570312 148.679688 -95.085938 148.078125 -97.203125 C 144.742188 -104.472656 144.441406 -111.285156 147.171875 -117.640625 C 147.773438 -119.460938 148.148438 -121.207031 148.296875 -122.875 C 148.453125 -124.539062 148.679688 -126.28125 148.984375 -128.09375 C 149.285156 -134.457031 148.53125 -140.816406 146.71875 -147.171875 C 145.207031 -152.015625 143.390625 -156.707031 141.265625 -161.25 C 139.148438 -165.789062 135.0625 -168.820312 129 -170.34375 C 128.394531 -170.34375 127.789062 -170.644531 127.1875 -171.25 C 125.0625 -171.25 123.09375 -171.320312 121.28125 -171.46875 C 119.46875 -171.625 117.5 -171.550781 115.375 -171.25 C 112.34375 -170.644531 109.3125 -170.113281 106.28125 -169.65625 C 103.257812 -169.195312 100.535156 -167.757812 98.109375 -165.34375 C 92.054688 -160.195312 89.03125 -153.535156 89.03125 -145.359375 C 88.726562 -136.578125 88.648438 -127.945312 88.796875 -119.46875 C 88.953125 -110.988281 89.03125 -102.359375 89.03125 -93.578125 C 89.03125 -92.054688 89.03125 -90.460938 89.03125 -88.796875 C 89.03125 -87.128906 89.484375 -85.539062 90.390625 -84.03125 C 90.992188 -83.125 91.066406 -81.757812 90.609375 -79.9375 C 90.160156 -78.125 89.785156 -76.3125 89.484375 -74.5 C 90.085938 -72.675781 90.765625 -70.628906 91.515625 -68.359375 C 92.273438 -66.085938 93.113281 -63.59375 94.03125 -60.875 C 95.238281 -59.957031 96.597656 -58.894531 98.109375 -57.6875 C 99.628906 -56.476562 101.296875 -55.421875 103.109375 -54.515625 C 107.953125 -52.390625 112.191406 -51.476562 115.828125 -51.78125 C 117.953125 -52.382812 120 -52.835938 121.96875 -53.140625 C 123.9375 -53.441406 126.28125 -53.59375 129 -53.59375 Z M 129 -53.59375 "/></g></g></g></g><g fill="#ffffff" fill-opacity="1"><g transform="translate(738.201549, 304.699391)"><g><path d="M 61.78125 -27.25 C 60.863281 -30.582031 60.101562 -33.609375 59.5 -36.328125 C 58.894531 -39.054688 58.140625 -41.632812 57.234375 -44.0625 C 55.722656 -47.394531 54.585938 -50.722656 53.828125 -54.046875 C 53.066406 -57.378906 52.835938 -60.863281 53.140625 -64.5 C 53.140625 -66.007812 52.6875 -67.445312 51.78125 -68.8125 C 50.875 -70.175781 50.722656 -71.460938 51.328125 -72.671875 C 53.140625 -77.828125 53.894531 -83.128906 53.59375 -88.578125 C 53.289062 -94.023438 52.988281 -99.472656 52.6875 -104.921875 C 52.382812 -108.253906 52.082031 -111.660156 51.78125 -115.140625 C 51.476562 -118.628906 51.175781 -122.191406 50.875 -125.828125 C 50.875 -128.242188 50.644531 -130.4375 50.1875 -132.40625 C 49.738281 -134.375 49.515625 -136.570312 49.515625 -139 C 49.210938 -141.113281 49.363281 -143.15625 49.96875 -145.125 C 50.570312 -147.09375 50.875 -148.988281 50.875 -150.8125 C 51.175781 -152.625 51.25 -154.363281 51.09375 -156.03125 C 50.945312 -157.695312 50.875 -159.4375 50.875 -161.25 C 49.0625 -163.675781 47.015625 -165.34375 44.734375 -166.25 C 42.460938 -167.15625 40.113281 -167.757812 37.6875 -168.0625 C 35.269531 -168.363281 32.773438 -168.4375 30.203125 -168.28125 C 27.628906 -168.132812 25.132812 -168.210938 22.71875 -168.515625 C 20.289062 -170.335938 18.472656 -171.550781 17.265625 -172.15625 C 15.441406 -173.0625 14.078125 -174.195312 13.171875 -175.5625 C 12.265625 -176.925781 11.359375 -178.363281 10.453125 -179.875 C 8.929688 -182.300781 8.78125 -184.421875 10 -186.234375 C 11.207031 -188.054688 11.660156 -189.421875 11.359375 -190.328125 C 9.234375 -193.660156 8.472656 -197.066406 9.078125 -200.546875 C 9.691406 -204.023438 9.691406 -207.429688 9.078125 -210.765625 C 10.898438 -212.878906 12.1875 -215.453125 12.9375 -218.484375 C 13.695312 -221.515625 16.195312 -223.179688 20.4375 -223.484375 C 24.675781 -224.390625 29.21875 -224.539062 34.0625 -223.9375 C 38.90625 -223.332031 43.601562 -224.085938 48.15625 -226.203125 C 49.363281 -228.628906 50.34375 -230.976562 51.09375 -233.25 C 51.851562 -235.519531 51.328125 -238.171875 49.515625 -241.203125 C 48.609375 -242.710938 48.226562 -244.601562 48.375 -246.875 C 48.53125 -249.144531 48.910156 -251.035156 49.515625 -252.546875 C 50.117188 -254.066406 50.492188 -255.660156 50.640625 -257.328125 C 50.796875 -258.992188 50.875 -260.582031 50.875 -262.09375 C 51.175781 -265.726562 51.328125 -269.363281 51.328125 -273 C 51.328125 -276.632812 52.84375 -279.960938 55.875 -282.984375 C 58.894531 -285.710938 62.222656 -287.378906 65.859375 -287.984375 C 69.492188 -288.585938 73.28125 -288.585938 77.21875 -287.984375 C 81.457031 -286.773438 85.769531 -286.242188 90.15625 -286.390625 C 94.550781 -286.546875 98.867188 -286.472656 103.109375 -286.171875 C 104.617188 -285.867188 105.90625 -285.488281 106.96875 -285.03125 C 108.03125 -284.570312 109.015625 -284.191406 109.921875 -283.890625 C 111.128906 -282.078125 112.265625 -280.1875 113.328125 -278.21875 C 114.390625 -276.25 115.675781 -274.050781 117.1875 -271.625 C 117.1875 -266.476562 117.109375 -261.179688 116.953125 -255.734375 C 116.804688 -250.285156 116.882812 -244.53125 117.1875 -238.46875 C 117.1875 -236.65625 117.335938 -234.765625 117.640625 -232.796875 C 117.941406 -230.828125 118.25 -228.628906 118.5625 -226.203125 C 132.488281 -226.503906 145.660156 -225.144531 158.078125 -222.125 C 159.285156 -219.394531 160.113281 -216.816406 160.5625 -214.390625 C 161.019531 -211.972656 160.492188 -209.398438 158.984375 -206.671875 C 158.378906 -205.160156 158.226562 -203.34375 158.53125 -201.21875 C 158.832031 -199.101562 158.984375 -196.984375 158.984375 -194.859375 L 158.984375 -178.0625 C 157.460938 -173.820312 155.265625 -171.019531 152.390625 -169.65625 C 149.515625 -168.289062 146.109375 -167.757812 142.171875 -168.0625 C 139.148438 -168.363281 136.125 -168.515625 133.09375 -168.515625 C 130.0625 -168.515625 126.878906 -168.515625 123.546875 -168.515625 C 122.335938 -167.003906 121.050781 -165.414062 119.6875 -163.75 C 118.320312 -162.082031 117.488281 -160.34375 117.1875 -158.53125 C 116.582031 -155.195312 115.75 -151.863281 114.6875 -148.53125 C 113.632812 -145.195312 114.164062 -141.71875 116.28125 -138.09375 C 116.882812 -137.175781 117.109375 -136.113281 116.953125 -134.90625 C 116.804688 -133.695312 116.734375 -132.640625 116.734375 -131.734375 C 117.035156 -116.890625 117.035156 -102.203125 116.734375 -87.671875 C 116.734375 -84.640625 117.035156 -81.757812 117.640625 -79.03125 C 118.253906 -76.3125 118.710938 -73.4375 119.015625 -70.40625 C 119.316406 -67.976562 120.675781 -65.707031 123.09375 -63.59375 C 124.613281 -61.46875 126.359375 -59.570312 128.328125 -57.90625 C 130.296875 -56.25 132.1875 -54.507812 134 -52.6875 L 149.890625 -52.6875 C 151.410156 -51.175781 152.925781 -49.585938 154.4375 -47.921875 C 155.945312 -46.253906 157.460938 -44.664062 158.984375 -43.15625 L 158.984375 -19.53125 C 158.984375 -18.019531 159.4375 -16.582031 160.34375 -15.21875 C 161.25 -13.851562 161.398438 -12.265625 160.796875 -10.453125 C 160.492188 -9.835938 160.191406 -9.300781 159.890625 -8.84375 C 159.585938 -8.394531 159.285156 -7.867188 158.984375 -7.265625 C 157.773438 -5.753906 156.710938 -4.390625 155.796875 -3.171875 C 154.890625 -1.960938 153.832031 -0.601562 152.625 0.90625 L 103.109375 0.90625 C 100.691406 0 98.191406 -0.984375 95.609375 -2.046875 C 93.035156 -3.109375 90.539062 -3.941406 88.125 -4.546875 C 84.488281 -5.453125 81.304688 -7.269531 78.578125 -10 C 75.554688 -13.019531 72.679688 -15.894531 69.953125 -18.625 C 67.222656 -21.351562 64.5 -24.226562 61.78125 -27.25 Z M 61.78125 -27.25 "/></g></g></g><g fill="#ffffff" fill-opacity="1"><g transform="translate(913.533941, 304.699391)"><g><path d="M 186.234375 -76.3125 C 187.441406 -73.28125 188.046875 -71.160156 188.046875 -69.953125 C 188.347656 -63.585938 188.578125 -57.378906 188.734375 -51.328125 C 188.890625 -45.273438 188.660156 -39.21875 188.046875 -33.15625 C 187.441406 -28.3125 187.0625 -23.539062 186.90625 -18.84375 C 186.757812 -14.15625 186.535156 -9.539062 186.234375 -5 C 183.816406 -2.875 181.316406 -1.28125 178.734375 -0.21875 C 176.160156 0.832031 173.054688 0.453125 169.421875 -1.359375 C 167.910156 -1.960938 166.171875 -2.335938 164.203125 -2.484375 C 162.234375 -2.640625 160.492188 -2.265625 158.984375 -1.359375 C 154.742188 0.753906 150.878906 1.054688 147.390625 -0.453125 C 143.910156 -1.960938 140.503906 -3.929688 137.171875 -6.359375 C 135.660156 -6.960938 134.375 -7.796875 133.3125 -8.859375 C 132.257812 -9.921875 130.972656 -10.90625 129.453125 -11.8125 L 119.015625 -11.8125 C 116.585938 -8.175781 113.328125 -5.675781 109.234375 -4.3125 C 105.148438 -2.945312 100.988281 -1.507812 96.75 0 C 92.507812 1.507812 88.039062 2.1875 83.34375 2.03125 C 78.65625 1.882812 73.4375 1.207031 67.6875 0 C 64.351562 -0.601562 61.019531 -1.054688 57.6875 -1.359375 C 54.351562 -1.660156 51.476562 -1.960938 49.0625 -2.265625 C 45.425781 -3.785156 42.09375 -5.222656 39.0625 -6.578125 C 36.03125 -7.941406 32.851562 -9.382812 29.53125 -10.90625 C 28.007812 -13.019531 26.644531 -15.210938 25.4375 -17.484375 C 24.226562 -19.753906 22.863281 -21.953125 21.34375 -24.078125 C 18.925781 -27.410156 17.414062 -31.195312 16.8125 -35.4375 C 16.507812 -38.15625 15.976562 -40.875 15.21875 -43.59375 C 14.457031 -46.320312 13.625 -49.050781 12.71875 -51.78125 C 11.207031 -56.019531 10.523438 -59.125 10.671875 -61.09375 C 10.828125 -63.0625 11.359375 -67.070312 12.265625 -73.125 C 12.867188 -75.550781 13.320312 -77.898438 13.625 -80.171875 C 13.925781 -82.441406 14.378906 -84.640625 14.984375 -86.765625 C 16.503906 -90.390625 18.09375 -93.941406 19.75 -97.421875 C 21.414062 -100.910156 23.3125 -104.320312 25.4375 -107.65625 C 27.25 -110.6875 28.988281 -113.109375 30.65625 -114.921875 C 32.320312 -116.734375 34.0625 -118.320312 35.875 -119.6875 C 37.695312 -121.050781 39.742188 -122.1875 42.015625 -123.09375 C 44.285156 -124 47.085938 -124.910156 50.421875 -125.828125 C 51.628906 -126.128906 52.6875 -126.503906 53.59375 -126.953125 C 54.507812 -127.410156 55.570312 -127.640625 56.78125 -127.640625 C 58.289062 -127.941406 59.648438 -128.015625 60.859375 -127.859375 C 62.078125 -127.710938 63.441406 -127.789062 64.953125 -128.09375 C 66.773438 -128.09375 68.59375 -127.941406 70.40625 -127.640625 C 72.21875 -127.335938 74.035156 -127.941406 75.859375 -129.453125 C 77.671875 -130.671875 79.640625 -130.671875 81.765625 -129.453125 C 85.097656 -127.941406 88.578125 -127.410156 92.203125 -127.859375 C 95.835938 -128.316406 99.472656 -128.242188 103.109375 -127.640625 C 105.535156 -126.128906 108.035156 -124.84375 110.609375 -123.78125 C 113.179688 -122.71875 116.132812 -123.550781 119.46875 -126.28125 C 122.789062 -131.125 123.09375 -136.570312 120.375 -142.625 C 119.46875 -144.75 118.707031 -146.945312 118.09375 -149.21875 C 117.488281 -151.488281 116.582031 -153.53125 115.375 -155.34375 C 113.5625 -158.976562 111.140625 -161.851562 108.109375 -163.96875 C 105.078125 -166.09375 101.894531 -168.066406 98.5625 -169.890625 C 97.957031 -170.191406 97.351562 -170.414062 96.75 -170.5625 C 96.144531 -170.71875 95.539062 -171.097656 94.9375 -171.703125 L 72.671875 -171.703125 C 69.953125 -171.703125 67.984375 -172.003906 66.765625 -172.609375 C 64.648438 -173.816406 62.378906 -173.664062 59.953125 -172.15625 C 58.742188 -171.550781 57.226562 -171.171875 55.40625 -171.015625 C 53.59375 -170.867188 51.476562 -170.644531 49.0625 -170.34375 C 43.601562 -172.757812 39.660156 -176.539062 37.234375 -181.6875 C 34.816406 -186.84375 33.304688 -192.597656 32.703125 -198.953125 C 32.398438 -202.285156 32.398438 -205.691406 32.703125 -209.171875 C 33.003906 -212.660156 34.066406 -216.066406 35.890625 -219.390625 C 37.398438 -221.210938 39.0625 -222.347656 40.875 -222.796875 C 42.695312 -223.253906 44.816406 -223.484375 47.234375 -223.484375 C 50.566406 -223.785156 53.898438 -224.160156 57.234375 -224.609375 C 60.566406 -225.066406 63.898438 -225.898438 67.234375 -227.109375 C 68.441406 -227.722656 69.570312 -227.953125 70.625 -227.796875 C 71.6875 -227.648438 72.976562 -227.578125 74.5 -227.578125 C 81.457031 -227.578125 88.265625 -227.5 94.921875 -227.34375 C 101.585938 -227.1875 108.40625 -227.265625 115.375 -227.578125 C 122.039062 -227.878906 128.25 -226.816406 134 -224.390625 C 139.75 -221.972656 145.503906 -219.097656 151.265625 -215.765625 C 161.554688 -209.398438 169.578125 -200.160156 175.328125 -188.046875 C 176.242188 -185.628906 177.378906 -183.4375 178.734375 -181.46875 C 180.097656 -179.5 181.234375 -177.300781 182.140625 -174.875 C 182.753906 -172.457031 183.210938 -170.035156 183.515625 -167.609375 C 183.816406 -165.191406 184.722656 -162.921875 186.234375 -160.796875 C 186.535156 -160.191406 186.609375 -159.507812 186.453125 -158.75 C 186.304688 -158 186.234375 -157.316406 186.234375 -156.703125 C 185.628906 -151.859375 185.703125 -147.164062 186.453125 -142.625 C 187.210938 -138.082031 187.742188 -133.390625 188.046875 -128.546875 C 188.347656 -127.035156 188.878906 -125.519531 189.640625 -124 C 190.398438 -122.488281 190.628906 -120.976562 190.328125 -119.46875 C 190.023438 -117.644531 189.875 -115.820312 189.875 -114 C 189.875 -112.1875 189.414062 -110.222656 188.5 -108.109375 C 187.289062 -105.078125 187.140625 -101.742188 188.046875 -98.109375 C 188.660156 -95.085938 188.890625 -92.0625 188.734375 -89.03125 C 188.578125 -86 188.347656 -82.96875 188.046875 -79.9375 C 188.046875 -78.726562 187.441406 -77.519531 186.234375 -76.3125 Z M 80.859375 -54.515625 C 82.367188 -52.992188 84.03125 -51.472656 85.84375 -49.953125 C 87.664062 -48.441406 89.632812 -46.929688 91.75 -45.421875 C 94.175781 -46.023438 96.597656 -46.476562 99.015625 -46.78125 C 101.441406 -47.082031 103.867188 -47.539062 106.296875 -48.15625 C 108.109375 -48.757812 109.46875 -49.363281 110.375 -49.96875 L 118.5625 -56.78125 C 121.28125 -61.019531 121.804688 -65.03125 120.140625 -68.8125 C 118.472656 -72.601562 117.035156 -76.160156 115.828125 -79.484375 C 111.585938 -81.609375 107.5 -82.441406 103.5625 -81.984375 C 99.625 -81.535156 95.835938 -81.460938 92.203125 -81.765625 C 90.390625 -80.859375 88.722656 -80.023438 87.203125 -79.265625 C 85.691406 -78.503906 84.179688 -77.671875 82.671875 -76.765625 C 81.765625 -73.429688 80.703125 -69.945312 79.484375 -66.3125 C 78.273438 -62.6875 78.734375 -58.753906 80.859375 -54.515625 Z M 80.859375 -54.515625 "/></g></g></g><g fill="#3ab5ff" fill-opacity="1"><g transform="translate(1117.057422, 304.699391)"><g><path d="M 16.8125 -80.40625 C 16.8125 -84.332031 16.882812 -86.75 17.03125 -87.65625 C 17.1875 -88.570312 17.71875 -90.238281 18.625 -92.65625 C 16.5 -98.414062 14.453125 -104.09375 12.484375 -109.6875 C 10.515625 -115.289062 9.835938 -121.125 10.453125 -127.1875 C 11.054688 -130.21875 11.507812 -133.242188 11.8125 -136.265625 C 12.113281 -139.296875 12.414062 -142.328125 12.71875 -145.359375 C 12.71875 -148.378906 12.566406 -151.328125 12.265625 -154.203125 C 11.960938 -157.085938 12.113281 -160.039062 12.71875 -163.0625 C 13.019531 -165.1875 13.394531 -167.234375 13.84375 -169.203125 C 14.300781 -171.171875 14.679688 -173.210938 14.984375 -175.328125 C 14.984375 -177.148438 15.210938 -178.96875 15.671875 -180.78125 C 16.128906 -182.601562 16.660156 -184.421875 17.265625 -186.234375 C 17.867188 -188.359375 18.472656 -190.328125 19.078125 -192.140625 C 19.679688 -193.953125 20.285156 -195.769531 20.890625 -197.59375 C 22.109375 -201.226562 23.320312 -204.785156 24.53125 -208.265625 C 25.738281 -211.742188 27.097656 -215.148438 28.609375 -218.484375 C 30.734375 -223.023438 33.15625 -227.335938 35.875 -231.421875 C 38.601562 -235.515625 41.632812 -239.53125 44.96875 -243.46875 C 47.09375 -246.195312 49.816406 -248.316406 53.140625 -249.828125 C 57.378906 -252.253906 61.46875 -254.828125 65.40625 -257.546875 C 69.34375 -260.273438 73.429688 -262.695312 77.671875 -264.8125 C 81.003906 -266.632812 84.488281 -268 88.125 -268.90625 C 91.757812 -269.8125 95.390625 -270.875 99.015625 -272.09375 C 100.835938 -272.695312 102.734375 -273.300781 104.703125 -273.90625 C 106.671875 -274.507812 108.710938 -274.660156 110.828125 -274.359375 C 113.253906 -274.359375 115.453125 -274.660156 117.421875 -275.265625 C 119.390625 -275.867188 121.582031 -276.171875 124 -276.171875 C 125.519531 -276.171875 127.113281 -276.242188 128.78125 -276.390625 C 130.445312 -276.546875 132.035156 -276.019531 133.546875 -274.8125 C 134.148438 -274.207031 135.207031 -273.90625 136.71875 -273.90625 C 138.238281 -273.90625 139.753906 -274.054688 141.265625 -274.359375 C 145.804688 -275.265625 148.832031 -275.71875 150.34375 -275.71875 C 151.863281 -275.71875 154.894531 -275.265625 159.4375 -274.359375 L 161.25 -274.359375 C 167.3125 -274.960938 173.289062 -274.882812 179.1875 -274.125 C 185.09375 -273.375 191.53125 -272.539062 198.5 -271.625 C 199.707031 -270.71875 201.144531 -269.582031 202.8125 -268.21875 C 204.476562 -266.863281 206.066406 -265.578125 207.578125 -264.359375 C 208.191406 -262.242188 208.648438 -260.351562 208.953125 -258.6875 C 209.253906 -257.019531 209.707031 -255.28125 210.3125 -253.46875 C 210.914062 -249.53125 210.535156 -245.894531 209.171875 -242.5625 C 207.804688 -239.226562 206.519531 -235.894531 205.3125 -232.5625 C 204.40625 -230.144531 203.269531 -227.800781 201.90625 -225.53125 C 200.539062 -223.257812 199.253906 -220.910156 198.046875 -218.484375 C 193.804688 -218.484375 189.640625 -218.554688 185.546875 -218.703125 C 181.460938 -218.859375 177.300781 -219.847656 173.0625 -221.671875 C 170.945312 -222.878906 168.445312 -223.484375 165.5625 -223.484375 C 162.6875 -223.484375 160.039062 -223.03125 157.625 -222.125 C 155.195312 -221.21875 153 -220.6875 151.03125 -220.53125 C 149.0625 -220.375 146.867188 -220.453125 144.453125 -220.765625 C 137.484375 -221.066406 131.046875 -219.925781 125.140625 -217.34375 C 119.234375 -214.769531 113.40625 -211.820312 107.65625 -208.5 C 103.113281 -206.070312 99.175781 -202.960938 95.84375 -199.171875 C 92.507812 -195.390625 89.328125 -191.226562 86.296875 -186.6875 C 86.296875 -185.78125 86.21875 -184.71875 86.0625 -183.5 C 85.914062 -182.289062 85.539062 -180.929688 84.9375 -179.421875 C 83.425781 -176.390625 82.140625 -173.4375 81.078125 -170.5625 C 80.015625 -167.6875 79.789062 -164.582031 80.40625 -161.25 C 81.007812 -158.21875 80.851562 -155.414062 79.9375 -152.84375 C 79.03125 -150.269531 78.273438 -147.773438 77.671875 -145.359375 C 77.671875 -143.535156 77.367188 -141.789062 76.765625 -140.125 C 76.160156 -138.46875 75.554688 -136.878906 74.953125 -135.359375 C 74.953125 -135.359375 74.953125 -135.207031 74.953125 -134.90625 C 75.859375 -134 76.3125 -133.546875 76.3125 -133.546875 C 76.3125 -126.578125 77.066406 -119.6875 78.578125 -112.875 C 80.097656 -106.0625 80.707031 -98.867188 80.40625 -91.296875 C 81.613281 -89.785156 82.894531 -88.195312 84.25 -86.53125 C 85.613281 -84.863281 87.054688 -83.273438 88.578125 -81.765625 C 90.992188 -79.035156 93.257812 -76.382812 95.375 -73.8125 C 97.5 -71.238281 99.773438 -68.738281 102.203125 -66.3125 C 104.316406 -63.59375 106.890625 -61.78125 109.921875 -60.875 C 113.554688 -59.351562 117.265625 -58.0625 121.046875 -57 C 124.835938 -55.945312 128.703125 -54.8125 132.640625 -53.59375 C 132.941406 -53.59375 133.164062 -53.441406 133.3125 -53.140625 C 133.46875 -52.835938 133.847656 -52.6875 134.453125 -52.6875 C 135.660156 -52.6875 136.796875 -52.757812 137.859375 -52.90625 C 138.921875 -53.0625 140.054688 -52.988281 141.265625 -52.6875 C 142.472656 -52.6875 143.679688 -52.6875 144.890625 -52.6875 C 146.109375 -52.6875 147.019531 -52.382812 147.625 -51.78125 C 149.132812 -50.570312 150.191406 -50.644531 150.796875 -52 C 151.410156 -53.363281 152.320312 -53.742188 153.53125 -53.140625 C 154.738281 -52.535156 156.023438 -52.613281 157.390625 -53.375 C 158.753906 -54.132812 159.890625 -54.664062 160.796875 -54.96875 C 164.128906 -59.207031 165.945312 -63.75 166.25 -68.59375 C 166.550781 -73.4375 166.398438 -78.28125 165.796875 -83.125 C 165.492188 -86.15625 165.191406 -89.03125 164.890625 -91.75 C 164.585938 -94.476562 164.285156 -97.359375 163.984375 -100.390625 C 163.984375 -101.597656 163.675781 -102.726562 163.0625 -103.78125 C 162.457031 -104.84375 161.851562 -105.984375 161.25 -107.203125 C 157.007812 -108.710938 152.691406 -110.222656 148.296875 -111.734375 C 143.910156 -113.253906 139.144531 -112.800781 134 -110.375 C 132.789062 -110.976562 131.65625 -111.660156 130.59375 -112.421875 C 129.53125 -113.179688 128.394531 -114.015625 127.1875 -114.921875 C 123.550781 -118.253906 121.882812 -121.890625 122.1875 -125.828125 C 122.789062 -129.460938 122.863281 -133.09375 122.40625 -136.71875 C 121.957031 -140.351562 122.488281 -143.835938 124 -147.171875 C 124.300781 -147.773438 124.453125 -148.679688 124.453125 -149.890625 L 124.453125 -151.71875 C 125.972656 -156.5625 128.019531 -159.585938 130.59375 -160.796875 C 133.164062 -162.003906 136.269531 -162.609375 139.90625 -162.609375 L 186.6875 -162.609375 C 190.320312 -162.304688 194.03125 -161.925781 197.8125 -161.46875 C 201.601562 -161.019531 205.617188 -160.492188 209.859375 -159.890625 C 210.460938 -159.285156 211.289062 -158.300781 212.34375 -156.9375 C 213.40625 -155.570312 214.695312 -154.132812 216.21875 -152.625 C 215.613281 -147.476562 215.914062 -142.101562 217.125 -136.5 C 218.332031 -130.894531 218.632812 -125.066406 218.03125 -119.015625 C 217.726562 -115.679688 217.425781 -112.570312 217.125 -109.6875 C 216.820312 -106.8125 216.519531 -103.863281 216.21875 -100.84375 C 215.914062 -97.507812 216.289062 -94.476562 217.34375 -91.75 C 218.40625 -89.03125 218.632812 -86.003906 218.03125 -82.671875 C 217.726562 -80.847656 217.726562 -78.953125 218.03125 -76.984375 C 218.332031 -75.023438 217.726562 -73.132812 216.21875 -71.3125 C 215.613281 -70.101562 215.3125 -68.738281 215.3125 -67.21875 C 215.3125 -65.707031 215.613281 -64.195312 216.21875 -62.6875 C 216.820312 -61.164062 217.273438 -59.953125 217.578125 -59.046875 C 217.878906 -58.140625 218.03125 -56.929688 218.03125 -55.421875 C 218.03125 -50.265625 218.101562 -45.265625 218.25 -40.421875 C 218.40625 -35.578125 218.179688 -30.582031 217.578125 -25.4375 C 217.273438 -23.3125 217.046875 -21.265625 216.890625 -19.296875 C 216.742188 -17.335938 216.367188 -15.296875 215.765625 -13.171875 C 215.160156 -11.359375 214.328125 -9.617188 213.265625 -7.953125 C 212.203125 -6.285156 211.066406 -4.539062 209.859375 -2.71875 C 205.617188 -3.332031 201.53125 -3.257812 197.59375 -2.5 C 193.65625 -1.738281 189.867188 -0.601562 186.234375 0.90625 C 183.816406 1.8125 181.925781 2.414062 180.5625 2.71875 C 179.195312 3.019531 177.753906 3.171875 176.234375 3.171875 C 174.722656 3.171875 172.90625 3.019531 170.78125 2.71875 C 168.664062 2.414062 165.941406 1.960938 162.609375 1.359375 C 161.097656 0.753906 159.734375 0.601562 158.515625 0.90625 C 157.304688 1.207031 155.945312 1.660156 154.4375 2.265625 C 148.988281 3.785156 144.296875 3.332031 140.359375 0.90625 C 137.929688 2.726562 135.203125 3.410156 132.171875 2.953125 C 129.148438 2.492188 126.273438 2.566406 123.546875 3.171875 C 119.304688 0.148438 114.835938 -1.207031 110.140625 -0.90625 C 105.453125 -0.601562 100.835938 -0.601562 96.296875 -0.90625 L 96.75 -0.90625 C 92.207031 -3.332031 87.96875 -5.453125 84.03125 -7.265625 C 80.09375 -9.085938 76.15625 -11.054688 72.21875 -13.171875 C 69.5 -14.679688 66.847656 -16.191406 64.265625 -17.703125 C 61.691406 -19.222656 59.195312 -21.195312 56.78125 -23.625 C 56.175781 -24.226562 55.414062 -24.753906 54.5 -25.203125 C 53.59375 -25.660156 52.835938 -26.191406 52.234375 -26.796875 C 47.390625 -29.222656 43.453125 -32.328125 40.421875 -36.109375 C 37.398438 -39.898438 34.828125 -44.21875 32.703125 -49.0625 C 30.285156 -54.207031 27.710938 -59.351562 24.984375 -64.5 C 22.253906 -69.644531 19.53125 -74.945312 16.8125 -80.40625 Z M 16.8125 -80.40625 "/></g></g></g><g fill="#3ab5ff" fill-opacity="1"><g transform="translate(1352.802181, 304.699391)"><g><path d="M 136.265625 -225.75 C 137.785156 -225.144531 139 -224.460938 139.90625 -223.703125 C 140.8125 -222.953125 141.566406 -222.425781 142.171875 -222.125 C 147.316406 -220.300781 152.160156 -218.253906 156.703125 -215.984375 C 161.253906 -213.710938 165.34375 -210.457031 168.96875 -206.21875 C 170.789062 -204.101562 172.6875 -202.132812 174.65625 -200.3125 C 176.625 -198.5 178.664062 -196.53125 180.78125 -194.40625 C 183.507812 -191.6875 185.929688 -188.8125 188.046875 -185.78125 C 190.171875 -182.75 191.535156 -179.265625 192.140625 -175.328125 C 192.742188 -173.816406 193.5 -172.300781 194.40625 -170.78125 C 195.320312 -169.269531 196.082031 -167.757812 196.6875 -166.25 C 197.59375 -164.125 198.421875 -162.078125 199.171875 -160.109375 C 199.929688 -158.148438 200.3125 -155.957031 200.3125 -153.53125 C 200.3125 -152.019531 200.460938 -150.351562 200.765625 -148.53125 C 201.066406 -146.71875 201.523438 -145.050781 202.140625 -143.53125 C 202.441406 -141.71875 202.441406 -139.976562 202.140625 -138.3125 C 201.835938 -136.644531 202.441406 -135.054688 203.953125 -133.546875 C 203.648438 -129.003906 204.101562 -124.613281 205.3125 -120.375 C 206.519531 -116.132812 206.820312 -111.742188 206.21875 -107.203125 C 205.914062 -105.679688 205.382812 -104.164062 204.625 -102.65625 C 203.875 -101.144531 203.648438 -99.628906 203.953125 -98.109375 C 204.253906 -96.597656 204.40625 -95.082031 204.40625 -93.5625 C 204.40625 -92.050781 203.648438 -90.539062 202.140625 -89.03125 C 202.140625 -89.03125 202.140625 -88.425781 202.140625 -87.21875 C 202.742188 -82.976562 202.285156 -78.890625 200.765625 -74.953125 C 199.253906 -71.015625 197.59375 -67.226562 195.78125 -63.59375 C 195.164062 -62.082031 194.476562 -60.414062 193.71875 -58.59375 C 192.96875 -56.78125 192.289062 -55.113281 191.6875 -53.59375 C 191.082031 -51.476562 190.476562 -49.359375 189.875 -47.234375 C 189.269531 -45.117188 188.507812 -43.148438 187.59375 -41.328125 C 186.082031 -38.003906 184.34375 -34.976562 182.375 -32.25 C 180.40625 -29.519531 178.363281 -26.796875 176.25 -24.078125 C 175.332031 -23.171875 174.34375 -22.335938 173.28125 -21.578125 C 172.226562 -20.816406 171.25 -20.132812 170.34375 -19.53125 C 167.007812 -18.019531 163.976562 -16.128906 161.25 -13.859375 C 158.53125 -11.585938 155.503906 -9.539062 152.171875 -7.71875 C 149.140625 -6.207031 146.035156 -4.84375 142.859375 -3.625 C 139.679688 -2.414062 136.425781 -1.507812 133.09375 -0.90625 C 130.664062 -0.300781 128.085938 0.148438 125.359375 0.453125 C 122.640625 0.753906 119.914062 1.054688 117.1875 1.359375 C 114.46875 1.660156 111.742188 1.660156 109.015625 1.359375 C 106.285156 1.054688 103.710938 1.054688 101.296875 1.359375 C 97.960938 1.960938 94.707031 1.660156 91.53125 0.453125 C 88.351562 -0.753906 85.097656 -1.660156 81.765625 -2.265625 C 76.003906 -3.785156 70.398438 -5.601562 64.953125 -7.71875 C 59.503906 -9.84375 54.207031 -12.265625 49.0625 -14.984375 C 46.632812 -16.503906 44.359375 -18.171875 42.234375 -19.984375 C 40.117188 -21.804688 38.457031 -24.078125 37.25 -26.796875 C 36.644531 -28.003906 35.960938 -29.140625 35.203125 -30.203125 C 34.441406 -31.265625 33.757812 -32.097656 33.15625 -32.703125 C 29.519531 -36.035156 26.945312 -40.125 25.4375 -44.96875 C 23.007812 -51.019531 20.507812 -56.847656 17.9375 -62.453125 C 15.363281 -68.054688 13.320312 -73.882812 11.8125 -79.9375 C 11.8125 -80.550781 11.582031 -81.007812 11.125 -81.3125 C 10.675781 -81.613281 10.453125 -82.066406 10.453125 -82.671875 C 11.054688 -88.722656 10.75 -94.550781 9.53125 -100.15625 C 8.320312 -105.757812 8.019531 -111.585938 8.625 -117.640625 C 8.625 -118.253906 8.546875 -118.863281 8.390625 -119.46875 C 8.242188 -120.070312 8.320312 -120.675781 8.625 -121.28125 C 11.050781 -124.914062 12.265625 -128.625 12.265625 -132.40625 C 12.265625 -136.195312 12.414062 -140.0625 12.71875 -144 C 12.71875 -148.539062 13.472656 -153.003906 14.984375 -157.390625 C 16.503906 -161.785156 18.171875 -166.253906 19.984375 -170.796875 C 22.109375 -176.242188 24.757812 -181.3125 27.9375 -186 C 31.113281 -190.695312 34.367188 -195.316406 37.703125 -199.859375 C 39.210938 -202.285156 41.253906 -204.332031 43.828125 -206 C 46.398438 -207.664062 48.75 -209.554688 50.875 -211.671875 C 57.226562 -218.640625 65.101562 -222.125 74.5 -222.125 C 77.21875 -222.125 79.863281 -222.878906 82.4375 -224.390625 C 85.007812 -225.898438 87.8125 -226.351562 90.84375 -225.75 C 93.875 -228.175781 97.050781 -229.238281 100.375 -228.9375 C 103.707031 -228.632812 106.890625 -228.179688 109.921875 -227.578125 C 113.253906 -226.960938 116.585938 -226.65625 119.921875 -226.65625 C 123.253906 -226.65625 126.582031 -226.503906 129.90625 -226.203125 C 131.125 -225.898438 132.257812 -225.75 133.3125 -225.75 C 134.375 -225.75 135.359375 -225.75 136.265625 -225.75 Z M 111.734375 -52.234375 C 112.648438 -52.835938 113.5625 -53.210938 114.46875 -53.359375 C 115.375 -53.515625 116.128906 -53.898438 116.734375 -54.515625 C 119.460938 -56.628906 122.265625 -58.59375 125.140625 -60.40625 C 128.015625 -62.226562 130.0625 -64.957031 131.28125 -68.59375 C 132.1875 -71.007812 133.242188 -73.425781 134.453125 -75.84375 C 135.660156 -78.269531 136.722656 -80.695312 137.640625 -83.125 C 138.546875 -85.238281 139.300781 -87.28125 139.90625 -89.25 C 140.507812 -91.21875 140.660156 -93.414062 140.359375 -95.84375 C 140.054688 -98.269531 139.90625 -100.691406 139.90625 -103.109375 C 139.90625 -105.535156 140.660156 -107.957031 142.171875 -110.375 C 142.773438 -110.976562 142.925781 -111.8125 142.625 -112.875 C 142.320312 -113.9375 142.019531 -114.921875 141.71875 -115.828125 C 141.414062 -116.734375 141.113281 -117.640625 140.8125 -118.546875 C 140.507812 -119.460938 140.359375 -120.375 140.359375 -121.28125 C 140.359375 -124.914062 140.128906 -128.472656 139.671875 -131.953125 C 139.222656 -135.429688 138.238281 -138.988281 136.71875 -142.625 C 135.8125 -144.144531 134.976562 -145.660156 134.21875 -147.171875 C 133.46875 -148.679688 132.789062 -150.195312 132.1875 -151.71875 C 131.582031 -155.65625 130.296875 -159.0625 128.328125 -161.9375 C 126.359375 -164.8125 124.007812 -167.460938 121.28125 -169.890625 C 114.007812 -170.492188 106.96875 -170.335938 100.15625 -169.421875 C 93.34375 -168.515625 87.816406 -164.882812 83.578125 -158.53125 C 82.066406 -154.894531 80.851562 -151.710938 79.9375 -148.984375 C 79.03125 -146.265625 78.125 -143.691406 77.21875 -141.265625 C 76.613281 -138.535156 76.160156 -135.882812 75.859375 -133.3125 C 75.554688 -130.738281 75.253906 -128.09375 74.953125 -125.375 C 73.128906 -115.675781 73.128906 -105.984375 74.953125 -96.296875 C 75.554688 -92.960938 76.234375 -89.628906 76.984375 -86.296875 C 77.742188 -82.972656 78.882812 -79.644531 80.40625 -76.3125 C 82.21875 -72.070312 84.410156 -68.132812 86.984375 -64.5 C 89.554688 -60.863281 92.960938 -58.289062 97.203125 -56.78125 C 99.628906 -56.175781 102.050781 -55.414062 104.46875 -54.5 C 106.894531 -53.59375 109.316406 -52.835938 111.734375 -52.234375 Z M 111.734375 -52.234375 "/></g></g></g></svg>